name C:\Users\u0101727\Documents\MyRepositories\upper-imu-dc\Results\main_tracking\Case_22\SHRUG01_orientations_groundFrame.mot
datacolumns 13
datarows 21
range 1.71000000 1.91000000
endheader 
time	radius_imu_[0][0]	radius_imu_[0][1]	radius_imu_[0][2]	radius_imu_[1][0]	radius_imu_[1][1]	radius_imu_[1][2]	radius_imu_[2][0]	radius_imu_[2][1]	radius_imu_[2][2]	radius_imu_x	radius_imu_y	radius_imu_z	
          1.71000000	          0.36337916	         -0.22994354	          0.90281867	         -0.32972116	          0.87460097	          0.35546743	         -0.87134353	         -0.42684787	          0.24199452	         -0.97308765	          1.12627980	          0.56418316	
          1.72000000	          0.36299590	         -0.23099902	          0.90270340	         -0.32894771	          0.87463743	          0.35609377	         -0.87179549	         -0.42620279	          0.24150321	         -0.97485076	          1.12601181	          0.56673240	
          1.73000000	          0.36182658	         -0.23225012	          0.90285182	         -0.32818879	          0.87473939	          0.35654329	         -0.87256727	         -0.42531269	          0.24028208	         -0.97778816	          1.12635688	          0.57064747	
          1.74000000	          0.36004250	         -0.23354492	          0.90323096	         -0.32748231	          0.87491456	          0.35676301	         -0.87357011	         -0.42424200	          0.23852460	         -0.98147031	          1.12723953	          0.57543215	
          1.75000000	          0.35776941	         -0.23477012	          0.90381638	         -0.32685552	          0.87516952	          0.35671245	         -0.87473797	         -0.42303818	          0.23637298	         -0.98558458	          1.12860560	          0.58072498	
          1.76000000	          0.35514131	         -0.23583533	          0.90457523	         -0.32631090	          0.87551232	          0.35636972	         -0.87601133	         -0.42173437	          0.23397495	         -0.98982950	          1.13038228	          0.58619619	
          1.77000000	          0.35232523	         -0.23667555	          0.90545658	         -0.32581113	          0.87595388	          0.35574135	         -0.87733348	         -0.42034449	          0.23150913	         -0.99387342	          1.13245421	          0.59151568	
          1.78000000	          0.34942652	         -0.23731138	          0.90641294	         -0.32526725	          0.87650771	          0.35487386	         -0.87869353	         -0.41882878	          0.22908542	         -0.99756252	          1.13471289	          0.59659197	
          1.79000000	          0.34606714	         -0.23805892	          0.90750509	         -0.32453529	          0.87718712	          0.35386382	         -0.88029221	         -0.41697807	          0.22630711	         -1.00181547	          1.13730573	          0.60255762	
          1.80000000	          0.34824330	         -0.23629852	          0.90713263	         -0.32341221	          0.87800317	          0.35286679	         -0.87984723	         -0.41626126	          0.22933690	         -0.99447393	          1.13641987	          0.59618058	
          1.81000000	          0.34711638	         -0.23644268	          0.90752690	         -0.32170926	          0.87895679	          0.35204846	         -0.88091621	         -0.41416159	          0.22903449	         -0.99401587	          1.13735767	          0.59797120	
          1.82000000	          0.35191606	         -0.23422289	          0.90625313	         -0.31932759	          0.88006208	          0.35145500	         -0.87987782	         -0.41307429	          0.23491415	         -0.98159149	          1.13433469	          0.58723929	
          1.83000000	          0.35851715	         -0.23167659	          0.90431820	         -0.31619799	          0.88131669	          0.35114061	         -0.87834178	         -0.41183353	          0.24271147	         -0.96599491	          1.12977977	          0.57370475	
          1.84000000	          0.36719096	         -0.22869704	          0.90159218	         -0.31232035	          0.88271189	          0.35110642	         -0.87614314	         -0.41050869	          0.25269708	         -0.94696001	          1.12343612	          0.55703635	
          1.85000000	          0.37765589	         -0.22533882	          0.89810826	         -0.30779288	          0.88423017	          0.35128413	         -0.87329237	         -0.40909585	          0.26457705	         -0.92526882	          1.11544882	          0.53797300	
          1.86000000	          0.38930366	         -0.22172314	          0.89402545	         -0.30280789	          0.88584352	          0.35155177	         -0.86991381	         -0.40757835	          0.27772261	         -0.90218852	          1.10625120	          0.51771958	
          1.87000000	          0.40127978	         -0.21803096	          0.88962747	         -0.29762618	          0.88751464	          0.35176189	         -0.86625239	         -0.40593136	          0.29124996	         -0.87922885	          1.09652880	          0.49771484	
          1.88000000	          0.41263584	         -0.21448104	          0.88528501	         -0.29252916	          0.88920086	          0.35177907	         -0.86264614	         -0.40412833	          0.30417419	         -0.85784474	          1.08710652	          0.47934835	
          1.89000000	          0.42250892	         -0.21130269	          0.88138379	         -0.28775768	          0.89085992	          0.35151688	         -0.85946596	         -0.40214397	          0.31559229	         -0.83919735	          1.07878352	          0.46373893	
          1.90000000	          0.43026809	         -0.20872001	          0.87823990	         -0.28345219	          0.89245539	          0.35096758	         -0.85704389	         -0.39994917	          0.32483293	         -0.82405103	          1.07216915	          0.45165100	
          1.91000000	          0.43559271	         -0.20693985	          0.87603361	         -0.27962096	          0.89395987	          0.35021119	         -0.85561154	         -0.39750680	          0.33153769	         -0.81278191	          1.06757497	          0.44351073	
